<svg id="_x33_0" enable-background="new 0 0 64 64" height="512" viewBox="0 0 64 64" width="512" xmlns="http://www.w3.org/2000/svg"><g><g><g><path d="m56 47-4-1c-3.65 9.76-12.59 16-23.09 16-10.98 0-20.59-6.99-23.91-17.39l3.81-1.22c2.79 8.74 10.86 14.61 20.1 14.61 8.65 0 15.91-5.06 19.09-13l-4-1 9-9z" fill="#f0bc5e"/></g></g><g><path d="m31.812 12.162-.013-.019c-.892-.095-1.796-.143-2.709-.143-10.5 0-19.44 6.24-23.09 16l-4-1 3 12 9-9-4-1c3.18-7.94 10.44-13 19.09-13 2.071 0 4.084.295 5.991.851l-.024-.034c-1.429-1.265-2.549-2.857-3.245-4.655z" fill="#f0bc5e"/></g><g><path d="m29 25c-6.617 0-12 5.383-12 12s5.383 12 12 12 12-5.383 12-12-5.383-12-12-12zm8.647 7h-3.356c-.595-1.974-1.477-3.471-2.329-4.552 2.417.751 4.436 2.401 5.685 4.552zm1.353 5c0 1.045-.163 2.052-.461 3h-3.779c.151-.918.24-1.915.24-3s-.088-2.082-.24-3h3.778c.299.948.462 1.955.462 3zm-9.996 9.76c-.776-.641-2.259-2.142-3.187-4.76h6.375c-.924 2.622-2.405 4.118-3.188 4.76zm-3.722-6.76c-.172-.904-.282-1.894-.282-3 0-1.107.109-2.096.279-3h7.439c.172.904.282 1.894.282 3 0 1.107-.109 2.096-.279 3zm-6.282-3c0-1.045.163-2.052.461-3h3.778c-.151.918-.239 1.915-.239 3s.088 2.082.24 3h-3.778c-.299-.948-.462-1.955-.462-3zm9.997-9.76c.776.641 2.258 2.142 3.187 4.76h-6.375c.923-2.62 2.402-4.116 3.188-4.76zm-2.959.208c-.852 1.08-1.734 2.577-2.329 4.552h-3.356c1.249-2.151 3.268-3.801 5.685-4.552zm-5.685 14.552h3.356c.595 1.974 1.477 3.471 2.329 4.552-2.417-.751-4.436-2.401-5.685-4.552zm11.609 4.552c.852-1.08 1.734-2.577 2.329-4.552h3.356c-1.249 2.151-3.268 3.801-5.685 4.552z"/><path d="m56.527 11.236c-2.734.631-5.013 2.23-6.527 4.383v-.455c0-6.381-4.568-11.773-10.863-12.822l-9.137-1.523v7.016c0 6.381 4.568 11.773 10.863 12.822l7.137 1.19v10.153h2v-5.204l6.023-1.39c4.108-.948 6.977-4.554 6.977-8.77v-6.893zm-24.527-3.401v-4.654l6.809 1.135c5.325.887 9.191 5.45 9.191 10.849v3.421l-10.293-10.293-1.414 1.414 9.793 9.793-4.895-.816c-5.325-.887-9.191-5.45-9.191-10.849zm29 8.801c0 3.279-2.231 6.084-5.426 6.82l-3.401.785 5.534-5.534-1.414-1.414-6.293 6.293v-1.631c0-4.216 2.869-7.822 6.976-8.77l4.024-.928z"/></g></g></svg>