<svg xmlns="http://www.w3.org/2000/svg" viewBox="0 0 182 44" width="182" height="44">
	<style>
		tspan { white-space:pre }
		.shp0 { fill: #49cb5c } 
		.shp1 { fill: #63459e } 
		.shp2 { fill: #96d629 } 
		.shp3 { fill: #000000 } 
		.txt4 { font-size: 24px;fill: #322153;font-weight: 400;font-family: "Baloo", "Baloo" } 
	</style>
	<g id="Pasta 1">
		<path id="Layer" class="shp0" d="M9.84 11.23L14.91 2.53C15.49 1.52 16.56 0.9 17.71 0.91L26.35 0.95L17.55 15.95L9.84 11.23Z" />
		<path id="Layer" class="shp1" d="M35.65 16.06L39.46 6.89L36.65 8.61L33.27 2.58C32.68 1.54 31.6 0.9 30.43 0.91L18.24 0.9L19.89 0.9C21.02 0.91 22.06 1.61 22.64 2.6L28.94 13.33L25.94 15.17L35.65 16.06Z" />
		<path id="Layer" class="shp2" d="M18.24 0.9L19.92 0.9C19.91 0.9 19.9 0.9 19.89 0.9L18.24 0.9Z" />
		<path id="Layer" class="shp0" d="M42.04 18.36L46.88 27.19C47.45 28.22 47.44 29.47 46.85 30.49L42.5 38.11L34.18 22.82L42.04 18.36Z" />
		<path id="Layer" class="shp1" d="M25.04 38.78L30.91 46.74L30.86 43.39L37.66 43.41C38.83 43.42 39.92 42.78 40.5 41.74L45.78 32.42C45.15 33.66 44.09 34.19 42.95 34.21L30.71 34.21L30.65 30.64L25.04 38.78Z" />
		<path id="Layer" class="shp2" d="M45.61 32.71C45.67 32.62 45.72 32.52 45.78 32.42L45.61 32.71Z" />
		<path id="Layer" class="shp0" d="M20.46 43.43L10.55 43.49C9.4 43.5 8.33 42.88 7.74 41.87L3.32 34.29L20.44 34.25L20.46 43.43Z" />
		<path id="Layer" class="shp1" d="M11.18 18.35L1.53 19.75L4.42 21.32L1.11 27.4C0.54 28.45 0.57 29.72 1.18 30.75L7.46 41.42L6.61 39.97C6.04 38.98 6.09 37.7 6.62 36.68L12.36 25.63L15.45 27.31L11.18 18.35Z" />
		<path id="Layer" fill-rule="evenodd" class="shp3" d="M9.4 11.78C9.07 11.58 8.96 11.14 9.16 10.8L10.44 8.6C10.9 7.8 12.11 8.54 11.65 9.33L10.72 10.92L17.33 14.96L23.29 4.8L22.12 2.8C21.69 2.07 20.95 1.56 20.2 1.45L17.73 1.44L17.72 1.44C16.81 1.44 15.96 1.93 15.49 2.73L13.74 5.74C13.28 6.54 12.07 5.8 12.53 5.01L14.29 1.99C15 0.76 16.32 0 17.72 0C22.02 0 26.32 0 30.63 0C32.05 0 33.37 0.78 34.09 2.05L37.16 7.52L39.38 6.16C39.95 5.81 40.65 6.43 40.39 7.06L36.54 16.34C36.43 16.61 36.17 16.78 35.89 16.78C35.87 16.78 35.85 16.78 35.83 16.77L26 15.87C25.34 15.81 25.13 14.89 25.7 14.54L28.13 13.05L24.11 6.19L18.17 16.32C17.98 16.65 17.53 16.76 17.21 16.57L9.4 11.78ZM22.87 1.43C23.04 1.63 23.19 1.84 23.32 2.06L29.7 12.93C29.9 13.27 29.79 13.71 29.46 13.91L28.28 14.64L35.44 15.3L38.25 8.53L37.26 9.13C37.1 9.23 36.91 9.26 36.72 9.21C36.54 9.16 36.39 9.04 36.29 8.87L32.87 2.77C32.4 1.94 31.55 1.44 30.62 1.44L30.61 1.44L22.87 1.43Z" />
		<path id="Layer" fill-rule="evenodd" class="shp3" d="M47.49 26.79C48.18 28.04 48.17 29.59 47.46 30.84C45.3 34.62 43.17 38.43 41.02 42.22C40.32 43.49 38.99 44.28 37.56 44.28L37.54 44.28L31.37 44.26L31.41 46.91C31.42 47.59 30.55 47.9 30.15 47.35L24.21 39.3C24.02 39.05 24.02 38.71 24.19 38.46L29.88 30.21C30.26 29.66 31.14 29.94 31.15 30.62L31.2 33.52L39.1 33.52L33.41 23.06C33.22 22.71 33.34 22.28 33.68 22.08L36.57 20.45C37.36 20 38.04 21.25 37.25 21.7L34.98 22.99L40.71 33.52L42.9 33.52C43.49 33.51 44.26 33.32 44.84 32.57L46.24 30.11C46.7 29.31 46.71 28.3 46.27 27.49L41.71 19.17L40.67 19.76C39.88 20.21 39.19 18.95 39.98 18.51L41.64 17.56C41.98 17.37 42.41 17.5 42.59 17.84L47.49 26.79ZM37.56 42.84C38.48 42.84 39.34 42.33 39.8 41.51L43.55 34.9C43.34 34.93 43.13 34.95 42.91 34.96L30.51 34.96C30.12 34.96 29.81 34.64 29.81 34.25L29.78 32.84L25.64 38.86L29.97 44.73L29.95 43.55C29.95 43.36 30.02 43.17 30.16 43.03C30.29 42.9 30.47 42.82 30.66 42.82L37.55 42.84C37.55 42.84 37.55 42.84 37.56 42.84Z" />
		<path id="Layer" fill-rule="evenodd" class="shp3" d="M21.17 33.77C21.31 33.9 21.38 34.08 21.38 34.28L21.41 43.58C21.41 43.97 21.09 44.29 20.71 44.3L18.69 44.31C17.78 44.31 17.78 42.88 18.68 42.87L20 42.86L19.98 35L8.38 35.03L7.31 37.08C6.92 37.84 6.87 38.74 7.17 39.46L8.43 41.63C8.9 42.43 9.75 42.93 10.67 42.92L14.32 42.9C15.22 42.9 15.23 44.33 14.32 44.33L10.68 44.35C8.98 44.37 7.77 43.31 6.94 41.91C4.82 38.31 2.7 34.7 0.58 31.1C-0.16 29.85 -0.2 28.28 0.5 27L3.51 21.49L1.21 20.24C0.62 19.92 0.78 18.99 1.44 18.89L11.21 17.47C11.51 17.43 11.81 17.59 11.94 17.87L16.26 26.94C16.55 27.55 15.88 28.21 15.3 27.89L12.8 26.53L9.13 33.59L20.68 33.56C20.85 33.56 21.05 33.64 21.17 33.77ZM5.77 37.13C5.85 36.88 5.95 36.64 6.07 36.41L11.88 25.22C11.97 25.05 12.12 24.93 12.3 24.87C12.48 24.82 12.67 24.83 12.84 24.92L14.05 25.58L10.9 18.97L3.78 20.01L4.8 20.56C4.97 20.65 5.09 20.81 5.14 20.99C5.2 21.18 5.17 21.38 5.08 21.54L1.73 27.7C1.28 28.53 1.3 29.55 1.78 30.36L5.77 37.13Z" />
	</g>
	<text id=" " style="transform: matrix(1,0,0,1,90,20)" >
	</text>
	<text id="Kolet  " style="transform: matrix(1.521,0,0,1.521,69.479,35.38)" >
		<tspan x="0" y="0" class="txt4">Koleta </tspan>
	</text>
	<text id=" " style="transform: matrix(1,0,0,1,171,21)" >
	</text>
</svg>