<svg xmlns="http://www.w3.org/2000/svg" viewBox="0 0 182 44" width="182" height="44">
	<style>
		tspan { white-space:pre }
		.shp0 { fill: #322153 } 
		.shp1 { fill: #000000 } 
		.txt2 { font-size: 24px;fill: #322153;font-weight: 400;font-family: "Baloo", "Baloo" } 
	</style>
	<g id="Layer">
		<g id="Layer">
			<g id="Layer">
				<path id="Layer" class="shp0" d="M41.95 33.31L39.07 32.59C36.43 39.63 29.98 44.13 22.41 44.13C14.49 44.13 7.56 39.09 5.16 31.59L7.91 30.71C9.92 37.01 15.75 41.25 22.41 41.25C28.65 41.25 33.89 37.6 36.18 31.87L33.3 31.15L39.79 24.66L41.95 33.31Z" />
			</g>
		</g>
		<g id="Layer">
			<path id="Layer" class="shp0" d="M24.5 8.18L24.49 8.17C23.85 8.1 23.2 8.06 22.54 8.06C14.97 8.06 8.52 12.57 5.89 19.61L3 18.88L5.16 27.54L11.66 21.05L8.77 20.33C11.06 14.6 16.3 10.95 22.54 10.95C24.03 10.95 25.49 11.16 26.86 11.56L26.84 11.54C25.81 10.63 25.01 9.48 24.5 8.18L24.5 8.18Z" />
		</g>
		<g id="Layer">
			<path id="Layer" fill-rule="evenodd" class="shp1" d="M31.13 26.1C31.13 30.87 27.25 34.75 22.48 34.75C17.7 34.75 13.82 30.87 13.82 26.1C13.82 21.32 17.7 17.44 22.48 17.44C27.25 17.44 31.13 21.32 31.13 26.1ZM24.61 19.21C25.23 19.99 25.86 21.07 26.29 22.49L28.71 22.49C27.81 20.94 26.36 19.75 24.61 19.21ZM29.69 26.1C29.69 25.34 29.57 24.62 29.36 23.93L26.63 23.93C26.74 24.6 26.8 25.32 26.8 26.1C26.8 26.88 26.74 27.6 26.63 28.26L29.36 28.26C29.57 27.58 29.69 26.85 29.69 26.1ZM22.48 33.14C23.04 32.67 24.11 31.6 24.78 29.7L20.18 29.7C20.85 31.59 21.92 32.68 22.48 33.14ZM25.16 28.26C25.28 27.61 25.36 26.9 25.36 26.1C25.36 25.3 25.28 24.59 25.16 23.93L19.79 23.93C19.67 24.59 19.59 25.3 19.59 26.1C19.59 26.9 19.67 27.61 19.79 28.26L25.16 28.26ZM15.26 26.1C15.26 26.85 15.38 27.58 15.6 28.26L18.32 28.26C18.21 27.6 18.15 26.88 18.15 26.1C18.15 25.32 18.21 24.6 18.32 23.93L15.59 23.93C15.38 24.62 15.26 25.34 15.26 26.1ZM20.17 22.49L24.77 22.49C24.1 20.6 23.03 19.52 22.47 19.06C21.91 19.52 20.84 20.6 20.17 22.49ZM20.34 19.21C18.6 19.75 17.14 20.94 16.24 22.49L18.66 22.49C19.09 21.07 19.72 19.99 20.34 19.21ZM20.34 32.99C19.72 32.21 19.09 31.13 18.66 29.7L16.24 29.7C17.14 31.26 18.6 32.45 20.34 32.99ZM24.61 32.99C26.36 32.45 27.81 31.26 28.71 29.7L26.29 29.7C25.86 31.13 25.23 32.21 24.61 32.99Z" />
			<path id="Layer" fill-rule="evenodd" class="shp1" d="M47 6.44L47 11.41C47 14.45 44.93 17.05 41.97 17.73L37.62 18.74L37.62 22.49L36.18 22.49L36.18 15.17L31.03 14.31C26.49 13.55 23.2 9.66 23.2 5.06L23.2 0L29.79 1.1C34.33 1.86 37.62 5.74 37.62 10.35L37.62 10.68C38.72 9.12 40.36 7.97 42.33 7.51L47 6.44ZM31.27 12.89L34.8 13.47L27.74 6.41L28.76 5.39L36.18 12.82L36.18 10.35C36.18 6.45 33.39 3.16 29.55 2.52L24.64 1.7L24.64 5.06C24.64 8.96 27.43 12.25 31.27 12.89ZM45.56 8.25L42.65 8.92C39.69 9.6 37.62 12.2 37.62 15.25L37.62 16.42L42.16 11.88L43.18 12.9L39.19 16.89L41.64 16.33C43.95 15.8 45.56 13.77 45.56 11.41L45.56 8.25Z" />
		</g>
	</g>
	<text id=" " style="transform: matrix(1,0,0,1,90,20)" >
	</text>
	<text id="Koleta  " style="transform: matrix(1.521,0,0,1.521,52.479,36.38)" >
		<tspan x="0" y="0" class="txt2">Koleta </tspan>
	</text>
	<text id=" " style="transform: matrix(1,0,0,1,171,21)" >
	</text>
</svg>