<svg id="Capa_1" enable-background="new 0 0 512 512" height="512" viewBox="0 0 512 512" width="512" xmlns="http://www.w3.org/2000/svg"><g><path d="m448.891 504.5h-385.782c-30.712 0-55.609-24.897-55.609-55.609v-385.782c0-30.712 24.897-55.609 55.609-55.609h385.782c30.712 0 55.609 24.897 55.609 55.609v385.782c0 30.712-24.897 55.609-55.609 55.609z" fill="#f9f6f9"/><path d="m448.891 7.5h-54.294c30.712 0 55.609 24.897 55.609 55.609v385.782c0 30.712-24.897 55.609-55.609 55.609h54.294c30.712 0 55.609-24.897 55.609-55.609v-385.782c0-30.712-24.897-55.609-55.609-55.609z" fill="#dddaec"/><path d="m63.109 470.5c-11.915 0-21.609-9.694-21.609-21.609v-385.782c0-11.915 9.694-21.609 21.609-21.609h385.782c11.915 0 21.609 9.694 21.609 21.609v385.782c0 11.915-9.694 21.609-21.609 21.609z" fill="#80b4fb"/><path d="m448.891 41.5h-3.04c2.804 6.643 4.356 13.945 4.356 21.609v385.782c0 7.664-1.551 14.966-4.356 21.609h3.04c11.915 0 21.609-9.694 21.609-21.609v-385.782c0-11.915-9.694-21.609-21.609-21.609z" fill="#61a2f9"/><path d="m318.221 414.827h-124.442c-13.643 0-25.144-10.172-26.812-23.712l-29.219-237.202h236.504l-29.219 237.202c-1.668 13.541-13.169 23.712-26.812 23.712z" fill="#f9f6f9"/><g fill="#dddaec"><path d="m318.682 153.913-29.219 237.202c-1.668 13.54-13.17 23.712-26.812 23.712h55.57c13.643 0 25.144-10.172 26.812-23.712l29.219-237.202z"/><path d="m375.239 174.607h-238.478c-10.691 0-19.359-8.667-19.359-19.359 0-10.691 8.667-19.359 19.359-19.359h238.478c10.691 0 19.359 8.667 19.359 19.359-.001 10.692-8.668 19.359-19.359 19.359z"/><path d="m375.239 135.89h-56.254c10.691 0 19.359 8.667 19.359 19.359 0 10.691-8.667 19.359-19.359 19.359h56.254c10.691 0 19.359-8.667 19.359-19.359-.001-10.692-8.668-19.359-19.359-19.359z"/></g><path d="m448.891 0h-385.782c-34.798 0-63.109 28.311-63.109 63.108v385.783c0 34.798 28.311 63.109 63.109 63.109h385.782c34.798 0 63.109-28.311 63.109-63.108v-385.784c0-34.797-28.311-63.108-63.109-63.108zm48.109 448.892c0 26.527-21.582 48.108-48.109 48.108h-385.782c-26.527 0-48.109-21.581-48.109-48.108v-385.784c0-26.527 21.582-48.108 48.109-48.108h385.782c26.527 0 48.109 21.581 48.109 48.108z"/><path d="m282.447 89.673h-52.895c-14.214 0-25.778 11.563-25.778 25.777v12.939h-67.014c-14.81 0-26.858 12.049-26.858 26.858 0 13.754 10.394 25.12 23.739 26.671l25.882 210.113c2.128 17.271 16.854 30.295 34.256 30.295h124.441c17.402 0 32.128-13.024 34.256-30.295l25.882-210.113c13.344-1.552 23.739-12.918 23.739-26.671 0-14.81-12.049-26.858-26.858-26.858h-67.014v-12.939c0-14.214-11.564-25.777-25.778-25.777zm-63.672 25.777c0-5.942 4.835-10.777 10.778-10.777h52.895c5.943 0 10.778 4.835 10.778 10.777v12.939h-74.45v-12.939zm156.464 27.94c6.539 0 11.858 5.319 11.858 11.858s-5.32 11.858-11.858 11.858c-19.167 0-141.695 0-160.165 0-4.142 0-7.5 3.357-7.5 7.5s3.358 7.5 7.5 7.5h148.148l-25.633 208.092c-1.203 9.765-9.53 17.129-19.369 17.129h-124.441c-9.839 0-18.166-7.364-19.369-17.129l-25.633-208.092h31.233c4.142 0 7.5-3.357 7.5-7.5s-3.358-7.5-7.5-7.5c-5.943 0-33.384 0-43.25 0-6.539 0-11.858-5.319-11.858-11.858s5.32-11.858 11.858-11.858z"/><path d="m206.536 368.531c.344 3.902 3.618 6.842 7.462 6.842.221 0 .443-.009.667-.029 4.126-.363 7.176-4.003 6.813-8.129l-13.577-154.102c-.363-4.127-4.006-7.188-8.129-6.812-4.126.363-7.176 4.003-6.813 8.129z"/><path d="m256 375.373c4.142 0 7.5-3.357 7.5-7.5v-154.102c0-4.143-3.358-7.5-7.5-7.5s-7.5 3.357-7.5 7.5v154.102c0 4.143 3.358 7.5 7.5 7.5z"/><path d="m297.335 375.344c.224.021.446.029.667.029 3.844 0 7.119-2.939 7.462-6.842l13.577-154.102c.363-4.126-2.687-7.766-6.813-8.129-4.123-.386-7.766 2.687-8.129 6.812l-13.577 154.102c-.363 4.127 2.687 7.766 6.813 8.13z"/><path d="m470.5 130.159c-4.142 0-7.5 3.357-7.5 7.5v311.231c0 7.78-6.329 14.109-14.109 14.109h-385.782c-7.78.001-14.109-6.328-14.109-14.108v-39.359c0-4.143-3.358-7.5-7.5-7.5s-7.5 3.357-7.5 7.5v39.359c0 16.05 13.058 29.109 29.109 29.109h385.782c16.051 0 29.109-13.059 29.109-29.109v-311.232c0-4.142-3.358-7.5-7.5-7.5z"/><path d="m448.891 34h-385.782c-16.051 0-29.109 13.059-29.109 29.109v311.359c0 4.143 3.358 7.5 7.5 7.5s7.5-3.357 7.5-7.5v-311.359c0-7.78 6.329-14.109 14.109-14.109h385.782c7.78 0 14.109 6.329 14.109 14.109v39.487c0 4.143 3.358 7.5 7.5 7.5s7.5-3.357 7.5-7.5v-39.487c0-16.05-13.058-29.109-29.109-29.109z"/></g></svg>